<mxfile host="app.diagrams.net" modified="2020-08-11T01:04:42.157Z" agent="5.0 (Windows)" etag="PKpXjA12MIZnI9yHz3e2" version="13.6.2" type="github">
  <diagram id="0QKZTjJc9cyQ-u2rdT5g" name="Page-1">
    <mxGraphModel dx="1422" dy="763" grid="1" gridSize="10" guides="1" tooltips="1" connect="1" arrows="1" fold="1" page="1" pageScale="1" pageWidth="850" pageHeight="1100" math="0" shadow="0">
      <root>
        <mxCell id="0" />
        <mxCell id="1" parent="0" />
        <mxCell id="Za59vofXJyRdazfEl_qr-24" value="" style="rounded=0;whiteSpace=wrap;html=1;" parent="1" vertex="1">
          <mxGeometry x="10" y="460" width="210" height="110" as="geometry" />
        </mxCell>
        <mxCell id="Za59vofXJyRdazfEl_qr-2" value="Nginx Proxy" style="shape=image;html=1;verticalAlign=top;verticalLabelPosition=bottom;labelBackgroundColor=#ffffff;imageAspect=0;aspect=fixed;image=https://cdn4.iconfinder.com/data/icons/logos-brands-5/24/nginx-128.png" parent="1" vertex="1">
          <mxGeometry x="560" y="277" width="88" height="88" as="geometry" />
        </mxCell>
        <mxCell id="Za59vofXJyRdazfEl_qr-3" value="UI" style="aspect=fixed;perimeter=ellipsePerimeter;html=1;align=center;shadow=0;dashed=0;spacingTop=3;image;image=img/lib/active_directory/web_server.svg;" parent="1" vertex="1">
          <mxGeometry x="360" y="200" width="56" height="70" as="geometry" />
        </mxCell>
        <mxCell id="Za59vofXJyRdazfEl_qr-4" value="UI" style="aspect=fixed;perimeter=ellipsePerimeter;html=1;align=center;shadow=0;dashed=0;spacingTop=3;image;image=img/lib/active_directory/web_server.svg;" parent="1" vertex="1">
          <mxGeometry x="360" y="200" width="56" height="70" as="geometry" />
        </mxCell>
        <mxCell id="Za59vofXJyRdazfEl_qr-5" value="UI" style="aspect=fixed;perimeter=ellipsePerimeter;html=1;align=center;shadow=0;dashed=0;spacingTop=3;image;image=img/lib/active_directory/web_server.svg;" parent="1" vertex="1">
          <mxGeometry x="360" y="200" width="56" height="70" as="geometry" />
        </mxCell>
        <mxCell id="Za59vofXJyRdazfEl_qr-7" value="API" style="aspect=fixed;perimeter=ellipsePerimeter;html=1;align=center;shadow=0;dashed=0;spacingTop=3;image;image=img/lib/active_directory/web_server.svg;" parent="1" vertex="1">
          <mxGeometry x="360" y="350" width="56" height="70" as="geometry" />
        </mxCell>
        <mxCell id="Za59vofXJyRdazfEl_qr-9" value="" style="html=1;verticalLabelPosition=bottom;align=center;labelBackgroundColor=#ffffff;verticalAlign=top;strokeWidth=2;strokeColor=#0080F0;shadow=0;dashed=0;shape=mxgraph.ios7.icons.user;" parent="1" vertex="1">
          <mxGeometry x="750" y="300" width="40" height="40" as="geometry" />
        </mxCell>
        <UserObject label="https://mysaferwall.com/" link="https://mysaferwall.com/" id="Za59vofXJyRdazfEl_qr-12">
          <mxCell style="endArrow=classic;html=1;entryX=0.982;entryY=0.943;entryDx=0;entryDy=0;entryPerimeter=0;exitX=0;exitY=0.5;exitDx=0;exitDy=0;" parent="1" source="Za59vofXJyRdazfEl_qr-2" edge="1">
            <mxGeometry width="50" height="50" relative="1" as="geometry">
              <mxPoint x="530" y="420" as="sourcePoint" />
              <mxPoint x="414.9920000000002" y="266.01" as="targetPoint" />
            </mxGeometry>
          </mxCell>
        </UserObject>
        <mxCell id="Za59vofXJyRdazfEl_qr-13" value="" style="endArrow=classic;html=1;entryX=1;entryY=0.5;entryDx=0;entryDy=0;exitX=0;exitY=0.5;exitDx=0;exitDy=0;" parent="1" source="Za59vofXJyRdazfEl_qr-2" target="Za59vofXJyRdazfEl_qr-7" edge="1">
          <mxGeometry width="50" height="50" relative="1" as="geometry">
            <mxPoint x="570" y="334" as="sourcePoint" />
            <mxPoint x="424.9920000000002" y="276.01" as="targetPoint" />
          </mxGeometry>
        </mxCell>
        <mxCell id="Za59vofXJyRdazfEl_qr-14" value="https://api.mysaferwall.com/" style="edgeLabel;html=1;align=center;verticalAlign=middle;resizable=0;points=[];" parent="Za59vofXJyRdazfEl_qr-13" vertex="1" connectable="0">
          <mxGeometry x="0.1402" relative="1" as="geometry">
            <mxPoint as="offset" />
          </mxGeometry>
        </mxCell>
        <mxCell id="Za59vofXJyRdazfEl_qr-15" value="" style="endArrow=classic;html=1;entryX=1;entryY=0.5;entryDx=0;entryDy=0;exitX=0.05;exitY=0.525;exitDx=0;exitDy=0;exitPerimeter=0;" parent="1" source="Za59vofXJyRdazfEl_qr-9" target="Za59vofXJyRdazfEl_qr-2" edge="1">
          <mxGeometry width="50" height="50" relative="1" as="geometry">
            <mxPoint x="720" y="330" as="sourcePoint" />
            <mxPoint x="770" y="280" as="targetPoint" />
          </mxGeometry>
        </mxCell>
        <mxCell id="Za59vofXJyRdazfEl_qr-17" value="NSQ" style="aspect=fixed;perimeter=ellipsePerimeter;html=1;align=center;shadow=0;dashed=0;spacingTop=3;image;image=img/lib/active_directory/generic_server.svg;" parent="1" vertex="1">
          <mxGeometry x="256" y="190" width="30" height="53.57" as="geometry" />
        </mxCell>
        <mxCell id="Za59vofXJyRdazfEl_qr-18" value="Consumer" style="aspect=fixed;perimeter=ellipsePerimeter;html=1;align=center;shadow=0;dashed=0;spacingTop=3;image;image=img/lib/active_directory/generic_server.svg;" parent="1" vertex="1">
          <mxGeometry x="120" y="358.21" width="30" height="53.57" as="geometry" />
        </mxCell>
        <mxCell id="Za59vofXJyRdazfEl_qr-19" value="Couchbase" style="aspect=fixed;perimeter=ellipsePerimeter;html=1;align=center;shadow=0;dashed=0;spacingTop=3;image;image=img/lib/active_directory/generic_server.svg;" parent="1" vertex="1">
          <mxGeometry x="145" y="190" width="30" height="53.57" as="geometry" />
        </mxCell>
        <mxCell id="Za59vofXJyRdazfEl_qr-20" value="Minio" style="aspect=fixed;perimeter=ellipsePerimeter;html=1;align=center;shadow=0;dashed=0;spacingTop=3;image;image=img/lib/active_directory/generic_server.svg;" parent="1" vertex="1">
          <mxGeometry x="13" y="192" width="30" height="53.57" as="geometry" />
        </mxCell>
        <mxCell id="Za59vofXJyRdazfEl_qr-21" value="AV " style="aspect=fixed;perimeter=ellipsePerimeter;html=1;align=center;shadow=0;dashed=0;spacingTop=3;image;image=img/lib/active_directory/generic_server.svg;" parent="1" vertex="1">
          <mxGeometry x="30" y="480" width="30" height="53.57" as="geometry" />
        </mxCell>
        <mxCell id="Za59vofXJyRdazfEl_qr-22" value="AV" style="aspect=fixed;perimeter=ellipsePerimeter;html=1;align=center;shadow=0;dashed=0;spacingTop=3;image;image=img/lib/active_directory/generic_server.svg;" parent="1" vertex="1">
          <mxGeometry x="90" y="480" width="30" height="53.57" as="geometry" />
        </mxCell>
        <mxCell id="Za59vofXJyRdazfEl_qr-23" value="AV" style="aspect=fixed;perimeter=ellipsePerimeter;html=1;align=center;shadow=0;dashed=0;spacingTop=3;image;image=img/lib/active_directory/generic_server.svg;" parent="1" vertex="1">
          <mxGeometry x="160" y="480" width="30" height="53.57" as="geometry" />
        </mxCell>
        <mxCell id="Za59vofXJyRdazfEl_qr-26" value="" style="endArrow=classic;html=1;exitX=0.5;exitY=0;exitDx=0;exitDy=0;entryX=0;entryY=1;entryDx=0;entryDy=0;" parent="1" source="Za59vofXJyRdazfEl_qr-18" target="Za59vofXJyRdazfEl_qr-17" edge="1">
          <mxGeometry x="0.0755" y="-11" width="50" height="50" relative="1" as="geometry">
            <mxPoint x="220" y="410" as="sourcePoint" />
            <mxPoint x="270" y="360" as="targetPoint" />
            <mxPoint as="offset" />
          </mxGeometry>
        </mxCell>
        <mxCell id="Za59vofXJyRdazfEl_qr-27" value="" style="endArrow=classic;html=1;exitX=0;exitY=0.5;exitDx=0;exitDy=0;entryX=1;entryY=1;entryDx=0;entryDy=0;" parent="1" source="Za59vofXJyRdazfEl_qr-7" target="Za59vofXJyRdazfEl_qr-17" edge="1">
          <mxGeometry width="50" height="50" relative="1" as="geometry">
            <mxPoint x="300" y="397.53773000000007" as="sourcePoint" />
            <mxPoint x="361.2368507781248" y="270.0011253179169" as="targetPoint" />
          </mxGeometry>
        </mxCell>
        <mxCell id="Za59vofXJyRdazfEl_qr-34" value="&lt;div&gt;Reg Message&lt;/div&gt;" style="edgeLabel;html=1;align=center;verticalAlign=middle;resizable=0;points=[];rotation=61;" parent="Za59vofXJyRdazfEl_qr-27" vertex="1" connectable="0">
          <mxGeometry x="-0.3243" y="-4" relative="1" as="geometry">
            <mxPoint x="-5.12" y="-19.64" as="offset" />
          </mxGeometry>
        </mxCell>
        <mxCell id="Za59vofXJyRdazfEl_qr-28" value="" style="endArrow=classic;html=1;exitX=0.5;exitY=0;exitDx=0;exitDy=0;entryX=0.5;entryY=1;entryDx=0;entryDy=0;" parent="1" source="Za59vofXJyRdazfEl_qr-18" target="Za59vofXJyRdazfEl_qr-20" edge="1">
          <mxGeometry width="50" height="50" relative="1" as="geometry">
            <mxPoint x="120" y="371.10773000000006" as="sourcePoint" />
            <mxPoint x="181.2368507781248" y="243.57112531791688" as="targetPoint" />
          </mxGeometry>
        </mxCell>
        <mxCell id="Za59vofXJyRdazfEl_qr-37" value="Get File" style="edgeLabel;html=1;align=center;verticalAlign=middle;resizable=0;points=[];" parent="Za59vofXJyRdazfEl_qr-28" vertex="1" connectable="0">
          <mxGeometry x="-0.4329" y="-2" relative="1" as="geometry">
            <mxPoint as="offset" />
          </mxGeometry>
        </mxCell>
        <mxCell id="Za59vofXJyRdazfEl_qr-30" value="" style="endArrow=classic;html=1;exitX=0;exitY=0.5;exitDx=0;exitDy=0;entryX=0.5;entryY=1;entryDx=0;entryDy=0;" parent="1" source="Za59vofXJyRdazfEl_qr-7" target="Za59vofXJyRdazfEl_qr-19" edge="1">
          <mxGeometry width="50" height="50" relative="1" as="geometry">
            <mxPoint x="344.24" y="439.56" as="sourcePoint" />
            <mxPoint x="124" y="248" as="targetPoint" />
          </mxGeometry>
        </mxCell>
        <mxCell id="Za59vofXJyRdazfEl_qr-33" value="Update DB" style="edgeLabel;html=1;align=center;verticalAlign=middle;resizable=0;points=[];rotation=36;" parent="Za59vofXJyRdazfEl_qr-30" vertex="1" connectable="0">
          <mxGeometry x="-0.2183" y="4" relative="1" as="geometry">
            <mxPoint y="-11.84" as="offset" />
          </mxGeometry>
        </mxCell>
        <mxCell id="Za59vofXJyRdazfEl_qr-31" value="" style="endArrow=classic;html=1;exitX=1;exitY=0.5;exitDx=0;exitDy=0;entryX=0;entryY=0.5;entryDx=0;entryDy=0;" parent="1" edge="1">
          <mxGeometry width="50" height="50" relative="1" as="geometry">
            <mxPoint x="150.00000000000045" y="389.9950000000001" as="sourcePoint" />
            <mxPoint x="360" y="390" as="targetPoint" />
          </mxGeometry>
        </mxCell>
        <mxCell id="Za59vofXJyRdazfEl_qr-32" value="Update Scan result" style="edgeLabel;html=1;align=center;verticalAlign=middle;resizable=0;points=[];" parent="Za59vofXJyRdazfEl_qr-31" vertex="1" connectable="0">
          <mxGeometry x="-0.4667" relative="1" as="geometry">
            <mxPoint as="offset" />
          </mxGeometry>
        </mxCell>
        <mxCell id="Za59vofXJyRdazfEl_qr-35" value="" style="endArrow=classic;html=1;exitX=0;exitY=0.5;exitDx=0;exitDy=0;entryX=0.75;entryY=1;entryDx=0;entryDy=0;" parent="1" source="Za59vofXJyRdazfEl_qr-7" target="Za59vofXJyRdazfEl_qr-20" edge="1">
          <mxGeometry width="50" height="50" relative="1" as="geometry">
            <mxPoint x="370" y="395" as="sourcePoint" />
            <mxPoint x="145" y="253.56999999999994" as="targetPoint" />
          </mxGeometry>
        </mxCell>
        <mxCell id="Za59vofXJyRdazfEl_qr-36" value="Upload File" style="edgeLabel;html=1;align=center;verticalAlign=middle;resizable=0;points=[];rotation=22;" parent="Za59vofXJyRdazfEl_qr-35" vertex="1" connectable="0">
          <mxGeometry x="-0.2183" y="4" relative="1" as="geometry">
            <mxPoint x="18.99" y="-3.06" as="offset" />
          </mxGeometry>
        </mxCell>
        <mxCell id="UgLu3714s0j6Fc2jNeSb-2" value="&lt;div&gt;Receive Message&lt;/div&gt;" style="edgeLabel;html=1;align=center;verticalAlign=middle;resizable=0;points=[];rotation=-49;" vertex="1" connectable="0" parent="Za59vofXJyRdazfEl_qr-35">
          <mxGeometry x="-0.2183" y="4" relative="1" as="geometry">
            <mxPoint x="-51.010000000000005" y="-3.0600000000000023" as="offset" />
          </mxGeometry>
        </mxCell>
        <mxCell id="Za59vofXJyRdazfEl_qr-38" value="" style="endArrow=classic;html=1;entryX=0.5;entryY=0;entryDx=0;entryDy=0;exitX=0.25;exitY=1;exitDx=0;exitDy=0;" parent="1" source="Za59vofXJyRdazfEl_qr-18" target="Za59vofXJyRdazfEl_qr-24" edge="1">
          <mxGeometry width="50" height="50" relative="1" as="geometry">
            <mxPoint x="246" y="500" as="sourcePoint" />
            <mxPoint x="296" y="450" as="targetPoint" />
          </mxGeometry>
        </mxCell>
      </root>
    </mxGraphModel>
  </diagram>
</mxfile>
